<svg width="19" height="20" viewBox="0 0 19 20" fill="none" xmlns="http://www.w3.org/2000/svg">
<path d="M7.66499 13.3334L11.8317 10L7.66499 6.66669V9.16669H0.164993V10.8334H7.66499V13.3334Z" fill="#9333EA"/>
<path d="M9.33249 2.49917C8.3471 2.49644 7.37096 2.68927 6.46062 3.06648C5.55027 3.44369 4.72383 3.99779 4.02916 4.69667L5.20749 5.87501C6.30916 4.77334 7.77416 4.16584 9.33249 4.16584C10.8908 4.16584 12.3558 4.77334 13.4575 5.87501C14.5592 6.97667 15.1667 8.44167 15.1667 10C15.1667 11.5583 14.5592 13.0233 13.4575 14.125C12.3558 15.2267 10.8908 15.8342 9.33249 15.8342C7.77416 15.8342 6.30916 15.2267 5.20749 14.125L4.02916 15.3033C5.44499 16.72 7.32833 17.5008 9.33249 17.5008C11.3367 17.5008 13.22 16.72 14.6358 15.3033C16.0525 13.8875 16.8333 12.0042 16.8333 10C16.8333 7.99584 16.0525 6.11251 14.6358 4.69667C13.9412 3.99779 13.1147 3.44369 12.2044 3.06648C11.294 2.68927 10.3179 2.49644 9.33249 2.49917Z" fill="#9333EA"/>
</svg>
