<svg width="21" height="20" viewBox="0 0 21 20" fill="none" xmlns="http://www.w3.org/2000/svg">
<path d="M17.5711 2.92995C13.6722 -0.968924 7.32808 -0.969195 3.42893 2.92995C-0.470218 6.8291 -0.469946 13.1732 3.42893 17.0721C7.32781 20.971 13.6719 20.9712 17.5711 17.0721C21.4702 13.1729 21.4699 6.82883 17.5711 2.92995ZM13.3556 13.9445L10.5 11.0889L7.50839 14.0805C7.20815 14.3807 6.72079 14.3807 6.42054 14.0805C6.12029 13.7802 6.12029 13.2929 6.42054 12.9926L9.41214 10.001L6.55652 7.1454C6.25627 6.84515 6.25627 6.35779 6.55652 6.05754C6.85677 5.75729 7.34413 5.75729 7.64438 6.05754L10.5 8.91317L13.2196 6.19352C13.5199 5.89328 14.0072 5.89328 14.3075 6.19352C14.6077 6.49377 14.6077 6.98113 14.3075 7.28138L11.5879 10.001L14.4435 12.8566C14.7437 13.1569 14.7437 13.6443 14.4435 13.9445C14.1432 14.2448 13.6559 14.2448 13.3556 13.9445Z" fill="#6B7280"/>
</svg>
