<svg width="18" height="18" viewBox="0 0 18 18" fill="none" xmlns="http://www.w3.org/2000/svg">
<path d="M9 0C4.03741 0 0 4.03741 0 9C0 13.9626 4.03741 18 9 18C13.9626 18 18 13.9626 18 9C17.9997 4.03741 13.9626 0 9 0ZM9 16.5494C4.83721 16.5494 1.45061 13.1628 1.45061 8.99968C1.45061 4.83688 4.83721 1.45029 9 1.45029C13.1628 1.45029 16.5494 4.83721 16.5494 9C16.5494 13.1628 13.1628 16.5494 9 16.5494Z" fill="#9333EA"/>
<path d="M11.8689 6.13012L7.66798 10.3314L6.13077 8.79416C5.84769 8.51076 5.3885 8.51076 5.10542 8.79416C4.82202 9.07724 4.82202 9.53643 5.10542 9.81951L7.15547 11.8696C7.29701 12.0111 7.48282 12.0822 7.66831 12.0822C7.85379 12.0822 8.03928 12.0114 8.18082 11.8696L12.8946 7.1558C13.1777 6.8724 13.1777 6.41353 12.8946 6.13012C12.6112 5.84705 12.1523 5.84705 11.8689 6.13012Z" fill="#9333EA"/>
</svg>
