<svg width="16" height="15" viewBox="0 0 16 15" fill="none" xmlns="http://www.w3.org/2000/svg">
<path d="M15.0917 4.45562L15.4674 4.10793L15.5622 4.02178L15.6079 3.9787C15.6275 3.96024 15.6602 3.92947 15.6863 3.90178C15.7942 3.78794 15.8954 3.62794 15.9477 3.46795C15.9771 3.37872 15.9935 3.28026 15.9967 3.18795L16 3.07103C16 3.04026 15.9935 3.01257 15.9804 2.9818C15.9445 2.90796 15.8954 2.80027 15.8366 2.69566C15.7778 2.58797 15.7059 2.48643 15.6537 2.4372C15.6373 2.41874 15.621 2.40335 15.6047 2.39412C15.5916 2.38489 15.5785 2.38182 15.5687 2.37874C15.5458 2.37259 15.5262 2.37566 15.5099 2.38182C15.4772 2.40028 15.4544 2.43105 15.4511 2.50797C15.4348 2.64335 15.4151 2.84334 15.4151 3.06488C15.4151 3.08026 15.4151 3.09565 15.4151 3.11103V3.12949C15.3857 3.22487 15.34 3.31718 15.2747 3.38795C15.2093 3.46179 15.1276 3.51102 15.0427 3.56641C14.8728 3.67717 14.7029 3.79409 14.533 3.91717C14.1899 4.16024 13.8436 4.41869 13.4972 4.69253C12.8013 5.23714 12.0988 5.83712 11.4127 6.45865C10.573 7.21556 9.73657 7.96939 8.89687 8.72629L7.62589 9.87088L7.31223 10.157L7.24035 10.2216C7.24035 10.2216 7.23381 10.2247 7.23055 10.2247L7.21094 10.2278L6.38105 10.3786C5.80927 10.4863 5.24076 10.5909 4.66898 10.6986L4.39452 10.7509C4.50561 10.2432 4.61997 9.73242 4.73106 9.22474L4.90096 8.41553L4.94343 8.21246L4.96304 8.11092L4.9663 8.09861V8.09246V8.08938C4.96957 8.07708 4.96304 8.10477 4.96304 8.09861C4.96304 8.09246 4.96957 8.074 4.9663 8.08631C4.95977 8.10477 4.96304 8.09554 4.96304 8.09861C4.95977 8.09861 4.96957 8.08323 4.96957 8.08015L4.97937 8.07092L5.01858 8.034L5.09373 7.96015C5.50868 7.5817 5.92689 7.20633 6.34184 6.82787C7.65203 5.62482 8.96222 4.41562 10.2528 3.19411C10.8965 2.58181 11.5369 1.96644 12.1707 1.34799L12.4092 1.11415C12.4484 1.07415 12.4713 1.05261 12.4844 1.04031H12.4942C12.6053 1.04954 12.6968 1.05877 12.7686 1.07415C12.8046 1.08031 12.834 1.08646 12.8568 1.09569H12.8601C12.8536 1.09261 12.8732 1.10184 12.8503 1.09261H12.8536L12.8601 1.09569L12.8797 1.10184L12.9189 1.11723L12.9973 1.148C13.0954 1.188 13.164 1.21569 13.2555 1.25876C13.4286 1.34184 13.592 1.43722 13.7488 1.54799C14.4546 2.03721 14.8564 2.71104 15.1113 2.53566C15.2191 2.45566 15.2518 2.23105 15.1472 1.90798C15.0427 1.58799 14.7911 1.16338 14.3337 0.797235C14.1311 0.634162 13.9089 0.48955 13.6769 0.366475C13.6181 0.335707 13.5528 0.304938 13.494 0.27417C13.4286 0.240324 13.3829 0.22494 13.3241 0.197248L13.2849 0.178787L13.2522 0.163403L13.2228 0.151096C13.1836 0.135711 13.1444 0.123404 13.1052 0.111096C13.0267 0.0895585 12.9549 0.0710973 12.883 0.0587899C12.8144 0.0464825 12.7458 0.0341751 12.6837 0.0249445L12.5922 0.0126371L12.5399 0.00648337C12.5105 0.00340652 12.4811 0.000329663 12.4517 0.000329663C12.3341 -0.00274719 12.2034 0.0157139 12.089 0.0557131C11.9747 0.0957122 11.8767 0.151096 11.8015 0.209556C11.7819 0.221863 11.7623 0.240324 11.7394 0.258786L11.6937 0.298785L11.6283 0.357245L11.4976 0.474165L11.2363 0.708006C10.5436 1.33261 9.85419 1.96644 9.17786 2.60643C8.08985 3.64025 7.0149 4.67715 5.93996 5.72328L4.33245 7.2894L4.22789 7.39094C4.16908 7.4494 4.12007 7.51093 4.0776 7.57555C4.03839 7.64016 4.00245 7.70785 3.97631 7.78785C3.94364 7.89246 3.9469 7.914 3.93383 7.96323L3.82275 8.4986L3.5973 9.56627C3.50582 9.88011 3.41107 10.194 3.31958 10.5109L3.25097 10.7478L3.21829 10.8678L3.20196 10.9262C3.19542 10.957 3.18235 11.0093 3.17909 11.0524C3.15948 11.2339 3.21176 11.4678 3.37512 11.6432C3.45354 11.7293 3.55809 11.8001 3.66591 11.8431C3.77374 11.8862 3.88482 11.9078 3.99591 11.9108C4.02859 11.9108 4.06126 11.9108 4.09393 11.9078L4.14621 11.9016L4.16255 11.8985L4.20829 11.8924L4.24096 11.8862L4.36839 11.8647L4.6265 11.8247L5.13947 11.7416C5.48254 11.6831 5.8256 11.6247 6.16867 11.5662C6.51174 11.5047 6.85481 11.4432 7.19787 11.3816L7.45599 11.3355C7.60629 11.3078 7.78272 11.2432 7.92975 11.1478C7.96569 11.1232 8.00163 11.0985 8.03104 11.0739L8.08331 11.0309L8.11272 11.0032L8.20747 10.917L8.39371 10.7447C8.89034 10.2801 9.39024 9.81858 9.88687 9.35397C10.8769 8.41861 11.8669 7.48017 12.8568 6.5448C13.3535 6.07712 13.8501 5.60944 14.3435 5.14483L15.0917 4.45562ZM12.4354 1.03723C12.4256 1.03723 12.4158 1.03723 12.4125 1.03415L12.4354 1.03723ZM3.95344 10.837C3.9371 10.8401 3.95671 10.837 3.96651 10.8339C3.96977 10.8339 3.96977 10.8339 3.97304 10.8339L3.95344 10.837Z" fill="#8687E7"/>
<path d="M13.0986 8.65552C12.9385 8.4186 12.8046 8.72628 12.7033 9.18781C12.5334 9.9478 12.4125 10.7878 12.3308 11.6739C12.2883 12.117 12.2557 12.5724 12.2328 13.0308C12.2263 13.1447 12.223 13.2616 12.2165 13.3785L12.2099 13.5539V13.5754V13.5877C12.2099 13.5785 12.2099 13.6093 12.2099 13.5693V13.5723V13.5785L12.2067 13.6216C12.2034 13.6616 12.2001 13.6523 12.1969 13.6616C12.1707 13.7631 12.0858 13.8616 11.9845 13.9108C11.9191 13.9416 11.8603 13.9539 11.7754 13.9508L11.3245 13.9416L10.426 13.9231L8.62569 13.8862C7.42659 13.8646 6.22422 13.8462 5.02512 13.8246C3.82275 13.8093 2.62038 13.7969 1.41801 13.7969H1.40494H1.39187L1.33633 13.7939C1.33306 13.7877 1.35266 13.7939 1.33633 13.7908C1.31672 13.7877 1.30039 13.7785 1.28078 13.7723C1.24811 13.7539 1.21217 13.7262 1.19257 13.6954C1.1697 13.6646 1.15989 13.6277 1.15663 13.5877L1.15009 13.1631C1.14356 12.597 1.13376 12.0278 1.12069 11.4585C1.13376 10.8955 1.14356 10.3355 1.15663 9.77242C1.18277 7.98784 1.20237 6.20634 1.19583 4.42484L1.19257 3.78793C1.19257 3.72639 1.21544 3.6864 1.25791 3.6464C1.27752 3.62793 1.30366 3.61563 1.32979 3.6064C1.34286 3.60332 1.35593 3.60024 1.37227 3.59717C1.37554 3.59717 1.3788 3.59717 1.38207 3.59717C1.38207 3.59717 1.40821 3.59717 1.41801 3.59717H1.50623L2.21523 3.58794C3.15949 3.57255 4.10374 3.55101 5.04472 3.51717C6.1164 3.48025 7.00511 3.33871 6.92669 3.06179C6.85481 2.80641 6.09353 2.61873 4.99571 2.59103C4.00899 2.56642 3.01572 2.5418 2.02246 2.51719L1.64999 2.51104L1.46375 2.50796C1.42781 2.50796 1.40821 2.50488 1.36247 2.50796C1.31346 2.51104 1.26118 2.51104 1.21217 2.51719C0.810292 2.56027 0.434552 2.77872 0.215642 3.09872C0.160098 3.17871 0.114356 3.26487 0.0816827 3.35409C0.0457423 3.4464 0.0228711 3.52948 0.00653461 3.65255L0.00326731 3.69255V3.71409L0 3.75716V3.80332V3.82485V3.86793V4.04331V4.74483C0.00653461 6.24634 0.0261385 7.74784 0.0490096 9.24935L0.08495 11.5016L0.104554 12.6277L0.114356 13.1908L0.117623 13.4708V13.5416C0.117623 13.5662 0.117623 13.5816 0.12089 13.6216C0.124158 13.6923 0.13396 13.76 0.147029 13.8308C0.189504 14.08 0.320196 14.32 0.516234 14.4985C0.614254 14.5877 0.728609 14.6677 0.852767 14.7231C0.980192 14.7785 1.10108 14.8185 1.27752 14.84L1.34286 14.8462L1.3592 14.8492H1.40167L1.43435 14.8523L1.56831 14.8585L1.83623 14.8708L2.37533 14.8923C3.09414 14.92 3.81295 14.9415 4.53175 14.9569C5.97264 14.9877 7.42005 15 8.86747 15C9.59281 15 10.3182 14.9969 11.0402 14.9969L11.5826 14.9938H11.7198H11.795L11.9126 14.9877C12.0727 14.9723 12.2295 14.9354 12.3766 14.8769C12.6706 14.7538 12.9189 14.5446 13.0758 14.2831C13.1542 14.1508 13.2097 14.0123 13.2424 13.8616C13.2522 13.8154 13.2587 13.7723 13.262 13.7262C13.2653 13.6985 13.2653 13.6923 13.2653 13.68V13.6493L13.2685 13.5877V13.5569V13.4923C13.2653 12.1262 13.2653 10.7632 13.2849 9.40319C13.2947 9.15704 13.1803 8.77551 13.0986 8.65552Z" fill="#8687E7"/>
</svg>
