<svg width="21" height="20" viewBox="0 0 21 20" fill="none" xmlns="http://www.w3.org/2000/svg">
<g clip-path="url(#clip0_202_536)">
<path d="M3.60382 10.9091H14.1362C14.6383 10.9091 15.0453 10.5021 15.0453 10C15.0453 9.49798 14.6383 9.09095 14.1362 9.09095H3.60382L4.77921 7.91562C5.13424 7.56065 5.13424 6.98501 4.77921 6.62998C4.4243 6.27495 3.84867 6.27495 3.49358 6.62998L0.766485 9.35707C0.745394 9.3781 0.725515 9.4001 0.706606 9.42313C0.702 9.42877 0.698061 9.43483 0.693576 9.44059C0.679697 9.45822 0.666061 9.47592 0.653576 9.49459C0.649939 9.50004 0.64697 9.5058 0.643394 9.51132C0.630909 9.53083 0.618667 9.55053 0.607636 9.57107C0.605515 9.57513 0.603758 9.57944 0.601636 9.5835C0.590182 9.60574 0.579152 9.62828 0.569515 9.65156C0.568303 9.65441 0.567455 9.65744 0.566303 9.66035C0.556424 9.68483 0.547273 9.70962 0.539515 9.73513C0.538485 9.73835 0.537939 9.74168 0.53703 9.74495C0.529697 9.76998 0.52297 9.79525 0.517818 9.82113C0.516303 9.82883 0.515636 9.83677 0.514242 9.84453C0.510485 9.86598 0.506727 9.88744 0.504606 9.90932C0.501515 9.93932 0.5 9.96962 0.5 10C0.5 10.0305 0.501515 10.0608 0.504606 10.0908C0.506727 10.113 0.510606 10.1346 0.514303 10.1563C0.515636 10.1638 0.516303 10.1715 0.517818 10.179C0.52303 10.2051 0.529697 10.2306 0.537091 10.2559C0.538 10.2588 0.538545 10.262 0.539455 10.265C0.547273 10.2906 0.556424 10.3156 0.566424 10.3403C0.567515 10.343 0.568303 10.3459 0.569455 10.3485C0.579152 10.372 0.590242 10.3946 0.601818 10.417C0.603818 10.421 0.605515 10.4251 0.607576 10.429C0.618727 10.4497 0.63103 10.4696 0.643697 10.4893C0.647091 10.4946 0.65 10.5002 0.653515 10.5054C0.666061 10.5242 0.679818 10.542 0.693636 10.5597C0.698061 10.5654 0.702 10.5714 0.706545 10.577C0.725515 10.5999 0.745394 10.622 0.766424 10.643L3.49352 13.3701C3.67103 13.5477 3.9037 13.6364 4.13636 13.6364C4.36903 13.6364 4.6017 13.5477 4.77915 13.3701C5.13418 13.0151 5.13418 12.4395 4.77915 12.0845L3.60382 10.9091Z" fill="#9333EA"/>
<path d="M13.0636 2.5636C10.5821 2.5636 8.27341 3.79463 6.88765 5.85651C6.60765 6.27317 6.71844 6.83802 7.1351 7.11808C7.55183 7.39808 8.11662 7.28742 8.39674 6.87063C9.44407 5.31214 11.1887 4.38172 13.0636 4.38172C16.1615 4.38178 18.6818 6.90208 18.6818 10C18.6818 13.098 16.1615 15.6183 13.0636 15.6183C11.1942 15.6183 9.45244 14.692 8.40432 13.1406C8.12316 12.7246 7.55819 12.6152 7.14207 12.8963C6.72607 13.1774 6.61662 13.7424 6.89771 14.1584C8.28444 16.2111 10.5894 17.4364 13.0636 17.4364C17.164 17.4364 20.5 14.1005 20.5 10C20.5 5.89954 17.164 2.5636 13.0636 2.5636Z" fill="#9333EA"/>
</g>
<defs>
<clipPath id="clip0_202_536">
<rect width="20" height="20" fill="white" transform="translate(0.5)"/>
</clipPath>
</defs>
</svg>
