<svg width="22" height="21" viewBox="0 0 22 21" fill="none" xmlns="http://www.w3.org/2000/svg">
<path d="M11 0.5C8.82441 0.5 6.69767 1.08649 4.88873 2.1853C3.07979 3.28412 1.66989 4.8459 0.83733 6.67316C0.00476609 8.50043 -0.213071 10.5111 0.211367 12.4509C0.635804 14.3907 1.68345 16.1725 3.22183 17.5711C4.76021 18.9696 6.72022 19.922 8.85401 20.3078C10.9878 20.6937 13.1995 20.4957 15.2095 19.7388C17.2195 18.9819 18.9375 17.7002 20.1462 16.0557C21.3549 14.4112 22 12.4778 22 10.5C22 7.84783 20.8411 5.3043 18.7782 3.42893C16.7153 1.55357 13.9174 0.5 11 0.5ZM10.56 14.6667L5.5 11.1583L7.1775 9.18333L10.2117 11.3333L14.3458 7.1L16.3992 8.76667L10.56 14.6667Z" fill="#9333EA"/>
</svg>
