<svg width="20" height="20" viewBox="0 0 20 20" fill="none" xmlns="http://www.w3.org/2000/svg">
<g clip-path="url(#clip0_202_523)">
<path d="M10 20C15.5228 20 20 15.5228 20 10C20 4.47715 15.5228 0 10 0C4.47715 0 0 4.47715 0 10C0 15.5228 4.47715 20 10 20Z" fill="#9333EA"/>
<path d="M13.8008 6.34961C13.6836 6.25391 13.5293 6.21875 13.3829 6.25C12.3067 6.47461 11.1856 6.24609 10.2852 5.61719C10.1153 5.49805 9.88871 5.49805 9.71684 5.61719C8.81645 6.24609 7.69535 6.47461 6.61918 6.25C6.4727 6.21875 6.3184 6.25391 6.20121 6.34961C6.08403 6.44531 6.01567 6.58789 6.01762 6.73828V10.4492C6.01762 11.8984 6.71684 13.2578 7.89457 14.0996L9.71293 15.3945C9.88676 15.5176 10.1172 15.5176 10.2911 15.3945L12.1094 14.0996C13.2852 13.2578 13.9844 11.8984 13.9844 10.4492V6.73828C13.9844 6.58789 13.918 6.44531 13.8008 6.34961ZM12.9883 10.4492C12.9883 11.5762 12.4454 12.6328 11.5293 13.2871L10 14.3789L8.47074 13.2891C7.55473 12.6328 7.01176 11.5762 7.01176 10.4492V7.31055C8.05668 7.40039 9.1016 7.1582 10 6.61914C10.8985 7.1582 11.9434 7.40039 12.9883 7.31055V10.4492Z" fill="#D8C4EA"/>
</g>
<defs>
<clipPath id="clip0_202_523">
<rect width="20" height="20" fill="white"/>
</clipPath>
</defs>
</svg>
