<svg width="16" height="15" viewBox="0 0 16 15" fill="none" xmlns="http://www.w3.org/2000/svg">
<path d="M12.9124 7.36051L13.1708 4.77626H13.623C13.9652 4.77626 14.2427 4.54505 14.2427 4.2599V3.31758C14.2427 2.42889 13.375 1.70586 12.3086 1.70586H10.1532V1.46732C10.1532 0.658182 9.36329 0 8.39244 0H6.58517C5.61426 0 4.82444 0.658182 4.82444 1.46727V1.70581H2.66905C1.60262 1.70581 0.734985 2.42884 0.734985 3.31752V4.25985C0.734985 4.545 1.01244 4.77621 1.35462 4.77621H1.80686L2.6488 13.197C2.74989 14.208 3.7828 15 5.00026 15H9.97717C11.1801 15 12.2023 14.2266 12.324 13.2328C14.0006 12.9446 15.265 11.7049 15.265 10.2237C15.2651 8.92167 14.2876 7.80702 12.9124 7.36051ZM6.06371 1.46727C6.06371 1.22768 6.29765 1.03273 6.58517 1.03273H8.39244C8.68002 1.03273 8.91396 1.22768 8.91396 1.46727V1.70581H6.06371V1.46727ZM1.97414 3.74359V3.31758C1.97414 2.99828 2.28583 2.73854 2.66899 2.73854H12.3086C12.6917 2.73854 13.0034 2.99828 13.0034 3.31758V3.74359H1.97414ZM9.97723 13.9673H5.00032C4.42226 13.9673 3.93183 13.5913 3.88383 13.1112L3.05032 4.77626H11.9272L11.6895 7.15384C11.6524 7.15293 11.6155 7.15146 11.5783 7.15146C9.54535 7.15146 7.89153 8.5297 7.89153 10.2237C7.89153 11.7716 9.27244 13.055 11.0614 13.2652C10.9359 13.6692 10.4918 13.9673 9.97723 13.9673ZM11.5783 12.2633C10.2287 12.2633 9.13074 11.3484 9.13074 10.2237C9.13074 9.09909 10.2287 8.18414 11.5783 8.18414C12.9278 8.18414 14.0258 9.09909 14.0258 10.2237C14.0258 11.3484 12.9278 12.2633 11.5783 12.2633Z" fill="#F56497"/>
</svg>
